<?xml version="1.0" ?><!DOCTYPE svg  PUBLIC '-//W3C//DTD SVG 1.1//EN'  'http://www.w3.org/Graphics/SVG/1.1/DTD/svg11.dtd'><svg height="512px" style="enable-background:new 0 0 512 512;" version="1.1" viewBox="0 0 512 512" width="512px" xml:space="preserve" xmlns="http://www.w3.org/2000/svg" xmlns:xlink="http://www.w3.org/1999/xlink"><g id="twitter__x2C__2__x2C_"><path d="M492.871,374.968c0,65.432-53.089,118.482-118.565,118.482H137.149   c-65.477,0-118.546-53.051-118.546-118.482V138.009c0-65.451,53.069-118.483,118.546-118.483h237.157   c65.477,0,118.565,53.032,118.565,118.483V374.968z" style="fill:#00ABE3;"/><path d="M147.387,207.915c0.059,13.923,0.328,27.943,0.405,41.924c0.02,15.06,0.059,30.116,0.059,45.176   c0,84.312,77.46,108.225,92.311,108.225c14.878,0,73.072,1.349,83.58,1.349c10.526,0,40.68-2.757,40.68-32.937   c0-30.2-21.401-41.037-35.848-41.037h-57.787c-41.114,0-47.675-17.992-47.675-34.674c0-7.925,0.501-20.98,0.994-36.981h96.557   c14.463,0,42.003-5.862,42.003-32.011c0-26.13-12.708-43.273-29.758-43.273H225.311c-0.116-37.701-2.596-75.286-39.821-75.286   c-15.399,0-27.895,6.268-33.154,21.811c-6.918,20.402-5.084,44.315-5.007,65.566C147.367,199.815,147.387,203.864,147.387,207.915z   " style="fill:#FFFFFF;"/><path d="M147.387,207.915c0.059,13.923,0.328,27.943,0.405,41.924c0.02,15.06,0.059,30.116,0.059,45.176   c0,84.312,77.46,108.225,92.311,108.225c14.878,0,73.072,1.349,83.58,1.349c10.526,0,40.68-2.757,40.68-32.937   c0-30.2-21.401-41.037-35.848-41.037h-57.787c-41.114,0-47.675-17.992-47.675-34.674c0-7.925,0.501-20.98,0.994-36.981h96.557   c14.463,0,42.003-5.862,42.003-32.011c0-26.13-12.708-43.273-29.758-43.273H225.311c-0.116-37.701-2.596-75.286-39.821-75.286   c-15.399,0-27.895,6.268-33.154,21.811c-6.918,20.402-5.084,44.315-5.007,65.566C147.367,199.815,147.387,203.864,147.387,207.915z   " style="fill:#FFFFFF;"/><path d="M185.49,108.389c37.225,0,39.705,37.585,39.821,75.286h107.596c17.05,0,29.758,17.144,29.758,43.273   c0,26.149-27.54,32.011-42.003,32.011h-96.557c-0.492,16.001-0.994,29.057-0.994,36.981c0,16.682,6.561,34.674,47.675,34.674   h57.787c14.446,0,35.848,10.837,35.848,41.037c0,30.18-30.153,32.937-40.68,32.937c-10.508,0-68.701-1.349-83.58-1.349   c-14.851,0-92.311-23.913-92.311-108.225c0-15.061-0.039-30.116-0.059-45.176c-0.077-13.981-0.347-28.001-0.405-41.924   c0-4.05-0.02-8.1-0.058-12.149c-0.077-21.251-1.911-45.164,5.007-65.566C157.595,114.656,170.091,108.389,185.49,108.389    M185.49,98.512c-21.19,0-36.287,10.129-42.51,28.522c-6.329,18.664-5.974,39.68-5.661,58.222c0.062,3.659,0.12,7.115,0.133,10.546   c0,0.019,0,0.038,0,0.057c0.038,4.035,0.057,8.091,0.057,12.056c0.031,7.351,0.121,14.794,0.208,21.991   c0.079,6.558,0.161,13.339,0.198,19.987c0.006,4.976,0.015,9.994,0.024,15.011c0.017,10.036,0.035,20.072,0.035,30.11   c0,48.737,24.143,77.76,44.397,93.523c21.781,16.953,46.907,24.578,57.791,24.578c7.99,0,29.157,0.403,47.832,0.76   c16.557,0.316,30.855,0.589,35.748,0.589c6.13,0,18.014-0.807,28.731-6.207c14.278-7.195,21.825-19.854,21.825-36.606   c0-20.572-8.565-32.651-15.751-39.163c-8.242-7.468-19.167-11.751-29.974-11.751h-57.787c-15.594,0-26.789-2.867-32.374-8.29   c-3.751-3.643-5.424-8.733-5.424-16.507c0-5.885,0.284-14.672,0.644-25.796c0.014-0.434,0.028-0.869,0.042-1.309h86.988   c5.278,0,18.881-0.722,31.148-7.402c13.369-7.281,20.731-19.528,20.731-34.486c0-14.711-3.556-27.545-10.281-37.115   c-7.269-10.34-17.693-16.035-29.354-16.035h-97.822c-0.318-15.653-1.57-32.164-6.52-45.37c-3.469-9.257-8.593-16.481-15.229-21.471   C205.885,101.353,196.516,98.512,185.49,98.512L185.49,98.512z" style="fill:#0080AA;"/><path d="M364.039,478.061H147.415c-62.448,0-113.253-50.818-113.253-113.283V148.179   c0-62.454,50.805-113.263,113.253-113.263h216.624c62.459,0,113.272,50.81,113.272,113.263v216.599   C477.312,427.242,426.498,478.061,364.039,478.061z M147.415,44.818c-56.988,0-103.351,46.367-103.351,103.36v216.599   c0,57.004,46.363,103.381,103.351,103.381h216.624c56.998,0,103.37-46.377,103.37-103.381V148.179   c0-56.993-46.372-103.36-103.37-103.36H147.415z" style="fill:#0080AA;"/></g><g id="Layer_1"/></svg>