<svg width="242" height="41" viewBox="0 0 242 41" fill="none" xmlns="http://www.w3.org/2000/svg">
<path d="M0 15C0 6.71573 6.71573 0 15 0L221.5 0C232.822 0 242 9.17816 242 20.5V20.5C242 31.8218 232.822 41 221.5 41L0 41L0 15Z" fill="#645CC3"/>
<path d="M17.16 28V11.2H20.112V18.184H28.128V11.2H31.08V28H28.128V20.92H20.112V28H17.16ZM40.8664 28.288C39.0104 28.288 37.4584 27.672 36.2104 26.44C34.9784 25.208 34.3624 23.616 34.3624 21.664C34.3624 19.824 34.9464 18.264 36.1144 16.984C37.2824 15.704 38.7624 15.064 40.5544 15.064C42.4744 15.064 43.9624 15.72 45.0184 17.032C46.0904 18.328 46.6264 19.944 46.6264 21.88C46.6264 22.232 46.6104 22.504 46.5784 22.696H37.2664C37.4264 23.704 37.8344 24.496 38.4904 25.072C39.1464 25.632 39.9544 25.912 40.9144 25.912C42.1624 25.912 43.3064 25.408 44.3464 24.4L46.0504 25.912C44.7384 27.496 43.0104 28.288 40.8664 28.288ZM37.2424 20.776H43.7464C43.6504 19.8 43.3224 19 42.7624 18.376C42.2024 17.752 41.4584 17.44 40.5304 17.44C39.6504 17.44 38.9144 17.752 38.3224 18.376C37.7304 18.984 37.3704 19.784 37.2424 20.776ZM49.7108 28V10.48H52.6148V28H49.7108ZM56.5779 28V10.48H59.4819V28H56.5779ZM69.3011 28.288C67.3811 28.288 65.7811 27.648 64.5011 26.368C63.2211 25.088 62.5811 23.528 62.5811 21.688C62.5811 19.848 63.2291 18.288 64.5251 17.008C65.8211 15.712 67.4291 15.064 69.3491 15.064C71.2691 15.064 72.8691 15.704 74.1491 16.984C75.4451 18.264 76.0931 19.832 76.0931 21.688C76.0931 23.512 75.4451 25.072 74.1491 26.368C72.8531 27.648 71.2371 28.288 69.3011 28.288ZM69.3491 25.768C70.5011 25.768 71.4291 25.376 72.1331 24.592C72.8371 23.808 73.1891 22.84 73.1891 21.688C73.1891 20.552 72.8211 19.592 72.0851 18.808C71.3491 18.008 70.4211 17.608 69.3011 17.608C68.1651 17.608 67.2451 18 66.5411 18.784C65.8371 19.568 65.4851 20.536 65.4851 21.688C65.4851 22.808 65.8531 23.768 66.5891 24.568C67.3251 25.368 68.2451 25.768 69.3491 25.768ZM77.8858 31.48L77.5738 30.256C78.9498 29.984 79.6378 29.32 79.6378 28.264C79.6378 28.232 79.6298 28.184 79.6138 28.12C79.6138 28.072 79.6138 28.032 79.6138 28H78.3898V24.712H81.5818V27.496C81.5818 28.792 81.2778 29.752 80.6698 30.376C80.0618 31.016 79.1338 31.384 77.8858 31.48ZM92.2224 28V15.328H95.1264V17.248C96.1824 15.792 97.4704 15.064 98.9904 15.064C100.75 15.064 102.006 15.808 102.758 17.296C103.894 15.808 105.326 15.064 107.054 15.064C108.446 15.064 109.534 15.488 110.318 16.336C111.102 17.184 111.494 18.376 111.494 19.912V28L108.59 28V20.8C108.59 19.792 108.366 19.024 107.918 18.496C107.47 17.968 106.838 17.704 106.022 17.704C105.206 17.704 104.55 17.984 104.054 18.544C103.558 19.088 103.31 19.856 103.31 20.848V28H100.406V20.776C100.406 19.8 100.182 19.048 99.7344 18.52C99.2864 17.976 98.6544 17.704 97.8384 17.704C97.0224 17.704 96.3664 17.992 95.8704 18.568C95.3744 19.128 95.1264 19.896 95.1264 20.872V28H92.2224ZM117.268 31.912C116.212 31.912 115.212 31.656 114.268 31.144L115.252 28.984C115.844 29.304 116.412 29.464 116.956 29.464C117.372 29.464 117.716 29.352 117.988 29.128C118.26 28.92 118.516 28.544 118.756 28L113.476 15.328H116.572L120.172 24.736L123.46 15.328H126.484L121.444 28.36C120.932 29.656 120.364 30.568 119.74 31.096C119.116 31.64 118.292 31.912 117.268 31.912ZM136.168 28V15.328H139.072V17.296C140.08 15.808 141.4 15.064 143.032 15.064C144.44 15.064 145.544 15.504 146.344 16.384C147.144 17.264 147.544 18.448 147.544 19.936V28H144.64V20.8C144.64 19.808 144.4 19.048 143.92 18.52C143.456 17.976 142.792 17.704 141.928 17.704C141.08 17.704 140.392 17.984 139.864 18.544C139.336 19.104 139.072 19.872 139.072 20.848V28H136.168ZM161.683 28H158.803V26.44C157.779 27.656 156.411 28.264 154.699 28.264C153.435 28.264 152.363 27.92 151.483 27.232C150.619 26.528 150.187 25.552 150.187 24.304C150.187 22.944 150.659 21.912 151.603 21.208C152.547 20.504 153.787 20.152 155.323 20.152C156.555 20.152 157.723 20.328 158.827 20.68V20.44C158.827 19.56 158.555 18.888 158.011 18.424C157.483 17.96 156.715 17.728 155.707 17.728C154.555 17.728 153.347 17.992 152.083 18.52L151.291 16.192C152.859 15.488 154.467 15.136 156.115 15.136C157.955 15.136 159.339 15.6 160.267 16.528C161.211 17.456 161.683 18.776 161.683 20.488V28ZM158.875 23.416V22.696C158.011 22.36 157.043 22.192 155.971 22.192C155.059 22.192 154.347 22.368 153.835 22.72C153.323 23.072 153.067 23.568 153.067 24.208C153.067 24.784 153.299 25.24 153.763 25.576C154.227 25.912 154.811 26.08 155.515 26.08C156.491 26.08 157.291 25.832 157.915 25.336C158.555 24.84 158.875 24.2 158.875 23.416ZM165.137 28V15.328L168.041 15.328V17.248C169.097 15.792 170.385 15.064 171.905 15.064C173.665 15.064 174.921 15.808 175.673 17.296C176.809 15.808 178.241 15.064 179.969 15.064C181.361 15.064 182.449 15.488 183.233 16.336C184.017 17.184 184.409 18.376 184.409 19.912V28H181.505V20.8C181.505 19.792 181.281 19.024 180.833 18.496C180.385 17.968 179.753 17.704 178.937 17.704C178.121 17.704 177.465 17.984 176.969 18.544C176.473 19.088 176.225 19.856 176.225 20.848V28L173.321 28V20.776C173.321 19.8 173.097 19.048 172.649 18.52C172.201 17.976 171.569 17.704 170.753 17.704C169.937 17.704 169.281 17.992 168.785 18.568C168.289 19.128 168.041 19.896 168.041 20.872V28H165.137ZM193.749 28.288C191.893 28.288 190.341 27.672 189.093 26.44C187.861 25.208 187.245 23.616 187.245 21.664C187.245 19.824 187.829 18.264 188.997 16.984C190.165 15.704 191.645 15.064 193.437 15.064C195.357 15.064 196.845 15.72 197.901 17.032C198.973 18.328 199.509 19.944 199.509 21.88C199.509 22.232 199.493 22.504 199.461 22.696L190.149 22.696C190.309 23.704 190.717 24.496 191.373 25.072C192.029 25.632 192.837 25.912 193.797 25.912C195.045 25.912 196.189 25.408 197.229 24.4L198.933 25.912C197.621 27.496 195.893 28.288 193.749 28.288ZM190.125 20.776L196.629 20.776C196.533 19.8 196.205 19 195.645 18.376C195.085 17.752 194.341 17.44 193.413 17.44C192.533 17.44 191.797 17.752 191.205 18.376C190.613 18.984 190.253 19.784 190.125 20.776ZM209.669 13.384V10.624H212.789V13.384H209.669ZM209.789 28V15.328H212.693V28H209.789ZM220.832 28.24C218.848 28.24 217.056 27.608 215.456 26.344L216.752 24.376C218.128 25.416 219.512 25.936 220.904 25.936C221.528 25.936 222.008 25.816 222.344 25.576C222.696 25.32 222.872 24.968 222.872 24.52C222.872 24.296 222.808 24.104 222.68 23.944C222.568 23.768 222.36 23.608 222.056 23.464C221.752 23.32 221.496 23.216 221.288 23.152C221.08 23.088 220.736 22.984 220.256 22.84L220.04 22.768C219.592 22.64 219.208 22.52 218.888 22.408C218.584 22.28 218.24 22.112 217.856 21.904C217.472 21.696 217.16 21.472 216.92 21.232C216.68 20.976 216.48 20.656 216.32 20.272C216.16 19.888 216.08 19.456 216.08 18.976C216.08 17.808 216.504 16.872 217.352 16.168C218.216 15.464 219.296 15.112 220.592 15.112C222.24 15.112 223.792 15.592 225.248 16.552L224.096 18.616C222.784 17.816 221.592 17.416 220.52 17.416C219.96 17.416 219.52 17.536 219.2 17.776C218.896 18.016 218.744 18.336 218.744 18.736C218.744 19.008 218.88 19.256 219.152 19.48C219.44 19.704 219.72 19.872 219.992 19.984C220.28 20.08 220.736 20.232 221.36 20.44C221.392 20.456 221.432 20.472 221.48 20.488C221.528 20.504 221.568 20.512 221.6 20.512C222.16 20.688 222.632 20.864 223.016 21.04C223.4 21.2 223.8 21.424 224.216 21.712C224.648 22 224.976 22.36 225.2 22.792C225.424 23.208 225.536 23.696 225.536 24.256C225.536 25.536 225.096 26.52 224.216 27.208C223.336 27.896 222.208 28.24 220.832 28.24Z" fill="white"/>
<line x1="227.5" y1="11" x2="227.5" y2="31" stroke="white"/>
</svg>
